<svg xmlns="http://www.w3.org/2000/svg" xmlns:xlink="http://www.w3.org/1999/xlink" width="161" zoomAndPan="magnify" viewBox="0 0 120.75 91.5" height="122" preserveAspectRatio="xMidYMid meet" version="1.0"><defs><g/><clipPath id="6a4bd6c8b8"><path d="M 1 0.03125 L 5 0.03125 L 5 6 L 1 6 Z M 1 0.03125 " clip-rule="nonzero"/></clipPath><clipPath id="3a59d30405"><path d="M 8 0.03125 L 10 0.03125 L 10 6 L 8 6 Z M 8 0.03125 " clip-rule="nonzero"/></clipPath><clipPath id="fac6afb514"><path d="M 14 0.03125 L 18 0.03125 L 18 6 L 14 6 Z M 14 0.03125 " clip-rule="nonzero"/></clipPath><clipPath id="6e800cb161"><path d="M 18 0.03125 L 22 0.03125 L 22 6 L 18 6 Z M 18 0.03125 " clip-rule="nonzero"/></clipPath><clipPath id="44222f5514"><path d="M 34 0.03125 L 38 0.03125 L 38 7 L 34 7 Z M 34 0.03125 " clip-rule="nonzero"/></clipPath><clipPath id="accd90dbcf"><path d="M 46 0.03125 L 51 0.03125 L 51 6 L 46 6 Z M 46 0.03125 " clip-rule="nonzero"/></clipPath><clipPath id="c8f789696c"><rect x="0" width="61" y="0" height="8"/></clipPath><clipPath id="fbbfd7b097"><path d="M 8.671875 8.46875 L 111.351562 8.46875 L 111.351562 64.925781 L 8.671875 64.925781 Z M 8.671875 8.46875 " clip-rule="nonzero"/></clipPath><clipPath id="89c6b94a30"><path d="M 8.808594 40.246094 L 59.183594 62.042969 C 59.734375 62.285156 60.335938 61.871094 60.335938 61.285156 L 60.335938 57.621094 C 60.335938 57.296875 60.148438 57.003906 59.855469 56.863281 L 9.390625 34.34375 C 9.03125 34.1875 8.808594 33.828125 8.808594 33.449219 L 8.808594 31.96875 C 8.808594 31.574219 9.03125 31.226562 9.390625 31.074219 L 58.566406 8.980469 C 59.683594 8.484375 60.972656 8.484375 62.09375 9 L 109.117188 30.695312 C 110.421875 31.296875 111.265625 32.605469 111.265625 34.050781 L 111.265625 38.765625 C 111.265625 40.191406 110.441406 41.5 109.132812 42.121094 L 60.769531 64.796875 C 60.492188 64.917969 60.183594 64.933594 59.890625 64.8125 L 9.390625 42.636719 C 9.03125 42.480469 8.808594 42.121094 8.808594 41.742188 Z M 8.808594 40.246094 " clip-rule="nonzero"/></clipPath><clipPath id="b8619e6f9e"><path d="M 0.796875 0.46875 L 103.351562 0.46875 L 103.351562 56.925781 L 0.796875 56.925781 Z M 0.796875 0.46875 " clip-rule="nonzero"/></clipPath><clipPath id="ded0e9deb2"><path d="M 0.808594 32.246094 L 51.183594 54.042969 C 51.734375 54.285156 52.335938 53.871094 52.335938 53.285156 L 52.335938 49.621094 C 52.335938 49.296875 52.148438 49.003906 51.855469 48.863281 L 1.390625 26.34375 C 1.03125 26.1875 0.808594 25.828125 0.808594 25.449219 L 0.808594 23.96875 C 0.808594 23.574219 1.03125 23.226562 1.390625 23.074219 L 50.566406 0.980469 C 51.683594 0.484375 52.972656 0.484375 54.09375 1 L 101.117188 22.695312 C 102.421875 23.296875 103.265625 24.605469 103.265625 26.050781 L 103.265625 30.765625 C 103.265625 32.191406 102.441406 33.5 101.132812 34.121094 L 52.769531 56.796875 C 52.492188 56.917969 52.183594 56.933594 51.890625 56.8125 L 1.390625 34.636719 C 1.03125 34.480469 0.808594 34.121094 0.808594 33.742188 Z M 0.808594 32.246094 " clip-rule="nonzero"/></clipPath><clipPath id="f0f382bf33"><rect x="0" width="104" y="0" height="57"/></clipPath><clipPath id="59b5b88af4"><path d="M 13.257812 39.519531 L 19.964844 39.519531 L 19.964844 81.863281 L 13.257812 81.863281 Z M 13.257812 39.519531 " clip-rule="nonzero"/></clipPath><clipPath id="3cd0e2fe51"><path d="M 14.328125 39.625 C 13.917969 39.433594 13.46875 39.746094 13.46875 40.191406 L 13.46875 81.347656 L 16.34375 78.457031 L 19.613281 81.726562 L 19.613281 42.394531 C 19.613281 42.152344 19.472656 41.929688 19.25 41.828125 Z M 14.328125 39.625 " clip-rule="nonzero"/></clipPath><clipPath id="e8daa0f5ef"><path d="M 0.332031 0.519531 L 6.777344 0.519531 L 6.777344 42.863281 L 0.332031 42.863281 Z M 0.332031 0.519531 " clip-rule="nonzero"/></clipPath><clipPath id="7f3102b3e1"><path d="M 1.328125 0.625 C 0.917969 0.433594 0.46875 0.746094 0.46875 1.191406 L 0.46875 42.347656 L 3.34375 39.457031 L 6.613281 42.726562 L 6.613281 3.394531 C 6.613281 3.152344 6.472656 2.929688 6.25 2.828125 Z M 1.328125 0.625 " clip-rule="nonzero"/></clipPath><clipPath id="2a4277dfaa"><rect x="0" width="7" y="0" height="43"/></clipPath><clipPath id="10e9d99902"><path d="M 26 54 L 94.414062 54 L 94.414062 77.628906 L 26 77.628906 Z M 26 54 " clip-rule="nonzero"/></clipPath><clipPath id="75f2dcaf28"><path d="M 26.804688 54.285156 L 60.113281 68.804688 C 60.25 68.875 60.425781 68.875 60.5625 68.804688 L 93.511719 54.285156 C 93.871094 54.113281 94.300781 54.386719 94.300781 54.800781 L 94.300781 64.488281 C 94.300781 65.433594 93.890625 66.328125 93.167969 66.949219 C 89.84375 69.769531 79.195312 77.339844 60.335938 77.339844 C 41.53125 77.339844 30.589844 69.5625 27.183594 66.6875 C 26.460938 66.070312 26.03125 65.175781 26.03125 64.230469 L 26.03125 54.800781 C 26.03125 54.40625 26.441406 54.128906 26.804688 54.285156 " clip-rule="nonzero"/></clipPath><clipPath id="86270e8124"><path d="M 0 0 L 68.414062 0 L 68.414062 23.574219 L 0 23.574219 Z M 0 0 " clip-rule="nonzero"/></clipPath><clipPath id="d23a0745e9"><path d="M 0.804688 0.285156 L 34.113281 14.804688 C 34.25 14.875 34.425781 14.875 34.5625 14.804688 L 67.511719 0.285156 C 67.871094 0.113281 68.300781 0.386719 68.300781 0.800781 L 68.300781 10.488281 C 68.300781 11.433594 67.890625 12.328125 67.167969 12.949219 C 63.84375 15.769531 53.195312 23.339844 34.335938 23.339844 C 15.53125 23.339844 4.589844 15.5625 1.183594 12.6875 C 0.460938 12.070312 0.03125 11.175781 0.03125 10.230469 L 0.03125 0.800781 C 0.03125 0.40625 0.441406 0.128906 0.804688 0.285156 " clip-rule="nonzero"/></clipPath><clipPath id="f79891ecbb"><rect x="0" width="69" y="0" height="24"/></clipPath></defs><g transform="matrix(1, 0, 0, 1, 30, 31)"><g clip-path="url(#c8f789696c)"><g clip-path="url(#6a4bd6c8b8)"><g fill="#ffffff" fill-opacity="1"><g transform="translate(1.710476, 5.170058)"><g><path d="M 1.3125 0 L 1.3125 -3.875 L 0 -3.875 L 0 -4.34375 L 3.21875 -4.34375 L 3.21875 -3.875 L 1.890625 -3.875 L 1.890625 0 Z M 1.3125 0 "/></g></g></g></g><g fill="#ffffff" fill-opacity="1"><g transform="translate(5.351233, 5.170058)"><g><path d="M 0.46875 0 L 0.46875 -2.15625 C 0.46875 -2.332031 0.460938 -2.5 0.453125 -2.65625 C 0.453125 -2.820312 0.445312 -2.976562 0.4375 -3.125 L 0.9375 -3.125 L 0.96875 -2.515625 L 0.984375 -2.515625 C 1.054688 -2.722656 1.171875 -2.882812 1.328125 -3 C 1.484375 -3.125 1.660156 -3.1875 1.859375 -3.1875 C 1.910156 -3.1875 1.960938 -3.179688 2.015625 -3.171875 L 2.015625 -2.640625 C 1.953125 -2.648438 1.882812 -2.65625 1.8125 -2.65625 C 1.613281 -2.65625 1.445312 -2.585938 1.3125 -2.453125 C 1.175781 -2.316406 1.09375 -2.140625 1.0625 -1.921875 C 1.050781 -1.890625 1.039062 -1.847656 1.03125 -1.796875 C 1.03125 -1.753906 1.03125 -1.710938 1.03125 -1.671875 L 1.03125 0 Z M 0.46875 0 "/></g></g></g><g clip-path="url(#3a59d30405)"><g fill="#ffffff" fill-opacity="1"><g transform="translate(7.894684, 5.170058)"><g><path d="M 1.03125 0 L 0.46875 0 L 0.46875 -3.125 L 1.03125 -3.125 Z M 0.75 -4.359375 C 0.863281 -4.359375 0.953125 -4.320312 1.015625 -4.25 C 1.078125 -4.1875 1.109375 -4.101562 1.109375 -4 C 1.109375 -3.90625 1.070312 -3.820312 1 -3.75 C 0.9375 -3.6875 0.847656 -3.65625 0.734375 -3.65625 C 0.640625 -3.65625 0.5625 -3.6875 0.5 -3.75 C 0.4375 -3.820312 0.40625 -3.90625 0.40625 -4 C 0.40625 -4.101562 0.4375 -4.1875 0.5 -4.25 C 0.5625 -4.320312 0.644531 -4.359375 0.75 -4.359375 Z M 0.75 -4.359375 "/></g></g></g></g><g fill="#ffffff" fill-opacity="1"><g transform="translate(9.837855, 5.170058)"><g/></g></g><g fill="#ffffff" fill-opacity="1"><g transform="translate(11.639021, 5.170058)"><g><path d="M 0.59375 -3.875 L 1.15625 -4.015625 L 1.15625 -3.125 L 1.96875 -3.125 L 1.96875 -2.6875 L 1.15625 -2.6875 L 1.15625 -1 C 1.15625 -0.8125 1.1875 -0.664062 1.25 -0.5625 C 1.3125 -0.457031 1.421875 -0.40625 1.578125 -0.40625 C 1.648438 -0.40625 1.710938 -0.40625 1.765625 -0.40625 C 1.828125 -0.414062 1.875 -0.425781 1.90625 -0.4375 L 1.9375 -0.015625 C 1.882812 0.00390625 1.8125 0.0195312 1.71875 0.03125 C 1.632812 0.0507812 1.539062 0.0625 1.4375 0.0625 C 1.164062 0.0625 0.957031 -0.015625 0.8125 -0.171875 C 0.738281 -0.253906 0.679688 -0.363281 0.640625 -0.5 C 0.609375 -0.632812 0.59375 -0.796875 0.59375 -0.984375 L 0.59375 -2.6875 L 0.109375 -2.6875 L 0.109375 -3.125 L 0.59375 -3.125 Z M 0.59375 -3.875 "/></g></g></g><g clip-path="url(#fac6afb514)"><g fill="#ffffff" fill-opacity="1"><g transform="translate(14.20829, 5.170058)"><g><path d="M 0.46875 0 L 0.46875 -4.578125 L 1.03125 -4.578125 L 1.03125 -2.640625 L 1.046875 -2.640625 C 1.140625 -2.804688 1.273438 -2.9375 1.453125 -3.03125 C 1.546875 -3.082031 1.640625 -3.117188 1.734375 -3.140625 C 1.828125 -3.171875 1.929688 -3.1875 2.046875 -3.1875 C 2.140625 -3.1875 2.25 -3.164062 2.375 -3.125 C 2.507812 -3.09375 2.628906 -3.023438 2.734375 -2.921875 C 2.847656 -2.828125 2.941406 -2.691406 3.015625 -2.515625 C 3.085938 -2.347656 3.125 -2.128906 3.125 -1.859375 L 3.125 0 L 2.5625 0 L 2.5625 -1.796875 C 2.5625 -1.960938 2.535156 -2.113281 2.484375 -2.25 C 2.441406 -2.394531 2.367188 -2.507812 2.265625 -2.59375 C 2.160156 -2.675781 2.019531 -2.71875 1.84375 -2.71875 C 1.65625 -2.71875 1.492188 -2.660156 1.359375 -2.546875 C 1.222656 -2.441406 1.128906 -2.3125 1.078125 -2.15625 C 1.054688 -2.113281 1.039062 -2.070312 1.03125 -2.03125 C 1.03125 -1.988281 1.03125 -1.941406 1.03125 -1.890625 L 1.03125 0 Z M 0.46875 0 "/></g></g></g></g><g clip-path="url(#6e800cb161)"><g fill="#ffffff" fill-opacity="1"><g transform="translate(18.223411, 5.170058)"><g><path d="M 3.15625 -3.75 L 3.59375 -3.8125 C 3.625 -3.75 3.648438 -3.675781 3.671875 -3.59375 C 3.691406 -3.519531 3.703125 -3.441406 3.703125 -3.359375 C 3.703125 -3.191406 3.648438 -3.0625 3.546875 -2.96875 C 3.441406 -2.875 3.3125 -2.820312 3.15625 -2.8125 L 3.078125 -2.8125 L 3.078125 -0.859375 C 3.078125 -0.691406 3.078125 -0.535156 3.078125 -0.390625 C 3.085938 -0.253906 3.097656 -0.125 3.109375 0 L 2.609375 0 L 2.578125 -0.515625 L 2.5625 -0.515625 C 2.507812 -0.429688 2.4375 -0.34375 2.34375 -0.25 C 2.257812 -0.15625 2.148438 -0.078125 2.015625 -0.015625 C 1.878906 0.046875 1.71875 0.078125 1.53125 0.078125 C 1.40625 0.078125 1.28125 0.0546875 1.15625 0.015625 C 1.03125 -0.0234375 0.910156 -0.0976562 0.796875 -0.203125 C 0.691406 -0.304688 0.609375 -0.445312 0.546875 -0.625 C 0.484375 -0.800781 0.453125 -1.023438 0.453125 -1.296875 L 0.453125 -3.125 L 1.015625 -3.125 L 1.015625 -1.390625 C 1.015625 -1.097656 1.066406 -0.859375 1.171875 -0.671875 C 1.273438 -0.492188 1.457031 -0.40625 1.71875 -0.40625 C 1.90625 -0.40625 2.0625 -0.457031 2.1875 -0.5625 C 2.320312 -0.675781 2.414062 -0.796875 2.46875 -0.921875 C 2.5 -1.003906 2.515625 -1.097656 2.515625 -1.203125 L 2.515625 -3.125 L 2.96875 -3.125 C 3.070312 -3.125 3.144531 -3.144531 3.1875 -3.1875 C 3.238281 -3.226562 3.265625 -3.289062 3.265625 -3.375 C 3.265625 -3.4375 3.253906 -3.5 3.234375 -3.5625 C 3.210938 -3.632812 3.1875 -3.695312 3.15625 -3.75 Z M 2.140625 -4.46875 L 2.765625 -4.46875 L 1.96875 -3.546875 L 1.5625 -3.546875 Z M 2.140625 -4.46875 "/></g></g></g></g><g fill="#ffffff" fill-opacity="1"><g transform="translate(22.212714, 5.170058)"><g><path d="M 2.59375 -0.546875 L 2.703125 -0.109375 C 2.628906 -0.078125 2.507812 -0.0390625 2.34375 0 C 2.1875 0.0390625 2.003906 0.0625 1.796875 0.0625 C 1.484375 0.0625 1.207031 0 0.96875 -0.125 C 0.738281 -0.257812 0.5625 -0.445312 0.4375 -0.6875 C 0.3125 -0.925781 0.25 -1.207031 0.25 -1.53125 C 0.25 -1.851562 0.316406 -2.140625 0.453125 -2.390625 C 0.585938 -2.640625 0.78125 -2.832031 1.03125 -2.96875 C 1.28125 -3.113281 1.578125 -3.1875 1.921875 -3.1875 C 2.085938 -3.1875 2.238281 -3.164062 2.375 -3.125 C 2.519531 -3.09375 2.628906 -3.0625 2.703125 -3.03125 L 2.578125 -2.59375 C 2.515625 -2.625 2.425781 -2.65625 2.3125 -2.6875 C 2.207031 -2.71875 2.078125 -2.734375 1.921875 -2.734375 C 1.679688 -2.734375 1.476562 -2.679688 1.3125 -2.578125 C 1.15625 -2.472656 1.03125 -2.332031 0.9375 -2.15625 C 0.851562 -1.976562 0.8125 -1.78125 0.8125 -1.5625 C 0.8125 -1.3125 0.859375 -1.097656 0.953125 -0.921875 C 1.054688 -0.753906 1.1875 -0.625 1.34375 -0.53125 C 1.507812 -0.4375 1.695312 -0.390625 1.90625 -0.390625 C 2.070312 -0.390625 2.207031 -0.40625 2.3125 -0.4375 C 2.425781 -0.46875 2.519531 -0.503906 2.59375 -0.546875 Z M 2.59375 -0.546875 "/></g></g></g><g fill="#ffffff" fill-opacity="1"><g transform="translate(25.537185, 5.170058)"><g/></g></g><g fill="#ffffff" fill-opacity="1"><g transform="translate(27.338351, 5.170058)"><g><path d="M 2.59375 -0.546875 L 2.703125 -0.109375 C 2.628906 -0.078125 2.507812 -0.0390625 2.34375 0 C 2.1875 0.0390625 2.003906 0.0625 1.796875 0.0625 C 1.484375 0.0625 1.207031 0 0.96875 -0.125 C 0.738281 -0.257812 0.5625 -0.445312 0.4375 -0.6875 C 0.3125 -0.925781 0.25 -1.207031 0.25 -1.53125 C 0.25 -1.851562 0.316406 -2.140625 0.453125 -2.390625 C 0.585938 -2.640625 0.78125 -2.832031 1.03125 -2.96875 C 1.28125 -3.113281 1.578125 -3.1875 1.921875 -3.1875 C 2.085938 -3.1875 2.238281 -3.164062 2.375 -3.125 C 2.519531 -3.09375 2.628906 -3.0625 2.703125 -3.03125 L 2.578125 -2.59375 C 2.515625 -2.625 2.425781 -2.65625 2.3125 -2.6875 C 2.207031 -2.71875 2.078125 -2.734375 1.921875 -2.734375 C 1.679688 -2.734375 1.476562 -2.679688 1.3125 -2.578125 C 1.15625 -2.472656 1.03125 -2.332031 0.9375 -2.15625 C 0.851562 -1.976562 0.8125 -1.78125 0.8125 -1.5625 C 0.8125 -1.3125 0.859375 -1.097656 0.953125 -0.921875 C 1.054688 -0.753906 1.1875 -0.625 1.34375 -0.53125 C 1.507812 -0.4375 1.695312 -0.390625 1.90625 -0.390625 C 2.070312 -0.390625 2.207031 -0.40625 2.3125 -0.4375 C 2.425781 -0.46875 2.519531 -0.503906 2.59375 -0.546875 Z M 2.59375 -0.546875 "/></g></g></g><g fill="#ffffff" fill-opacity="1"><g transform="translate(30.662822, 5.170058)"><g><path d="M 3.078125 -3.125 L 3.078125 -0.859375 C 3.078125 -0.691406 3.078125 -0.535156 3.078125 -0.390625 C 3.085938 -0.253906 3.097656 -0.125 3.109375 0 L 2.609375 0 L 2.578125 -0.515625 L 2.5625 -0.515625 C 2.507812 -0.429688 2.4375 -0.34375 2.34375 -0.25 C 2.257812 -0.15625 2.148438 -0.078125 2.015625 -0.015625 C 1.878906 0.046875 1.71875 0.078125 1.53125 0.078125 C 1.40625 0.078125 1.28125 0.0546875 1.15625 0.015625 C 1.03125 -0.0234375 0.910156 -0.0976562 0.796875 -0.203125 C 0.691406 -0.304688 0.609375 -0.445312 0.546875 -0.625 C 0.484375 -0.800781 0.453125 -1.023438 0.453125 -1.296875 L 0.453125 -3.125 L 1.015625 -3.125 L 1.015625 -1.390625 C 1.015625 -1.097656 1.066406 -0.859375 1.171875 -0.671875 C 1.273438 -0.492188 1.457031 -0.40625 1.71875 -0.40625 C 1.90625 -0.40625 2.0625 -0.457031 2.1875 -0.5625 C 2.320312 -0.675781 2.414062 -0.796875 2.46875 -0.921875 C 2.5 -1.003906 2.515625 -1.097656 2.515625 -1.203125 L 2.515625 -3.125 Z M 3.078125 -3.125 "/></g></g></g><g clip-path="url(#44222f5514)"><g fill="#ffffff" fill-opacity="1"><g transform="translate(34.652125, 5.170058)"><g><path d="M 1.796875 -3.1875 C 2.097656 -3.1875 2.359375 -3.117188 2.578125 -2.984375 C 2.804688 -2.847656 2.984375 -2.660156 3.109375 -2.421875 C 3.234375 -2.179688 3.296875 -1.90625 3.296875 -1.59375 C 3.296875 -1.300781 3.25 -1.050781 3.15625 -0.84375 C 3.070312 -0.632812 2.953125 -0.460938 2.796875 -0.328125 C 2.648438 -0.191406 2.484375 -0.0859375 2.296875 -0.015625 C 2.117188 0.046875 1.9375 0.078125 1.75 0.078125 C 1.46875 0.078125 1.210938 0.0078125 0.984375 -0.125 C 0.753906 -0.257812 0.570312 -0.445312 0.4375 -0.6875 C 0.3125 -0.925781 0.25 -1.207031 0.25 -1.53125 C 0.25 -1.882812 0.316406 -2.179688 0.453125 -2.421875 C 0.585938 -2.671875 0.769531 -2.859375 1 -2.984375 C 1.238281 -3.117188 1.503906 -3.1875 1.796875 -3.1875 Z M 1.78125 -2.765625 C 1.5625 -2.765625 1.378906 -2.703125 1.234375 -2.578125 C 1.085938 -2.460938 0.976562 -2.3125 0.90625 -2.125 C 0.84375 -1.945312 0.8125 -1.757812 0.8125 -1.5625 C 0.8125 -1.332031 0.851562 -1.125 0.9375 -0.9375 C 1.019531 -0.757812 1.128906 -0.617188 1.265625 -0.515625 C 1.410156 -0.410156 1.578125 -0.359375 1.765625 -0.359375 C 1.953125 -0.359375 2.113281 -0.410156 2.25 -0.515625 C 2.394531 -0.617188 2.507812 -0.757812 2.59375 -0.9375 C 2.675781 -1.125 2.71875 -1.332031 2.71875 -1.5625 C 2.71875 -1.738281 2.6875 -1.921875 2.625 -2.109375 C 2.5625 -2.296875 2.457031 -2.453125 2.3125 -2.578125 C 2.175781 -2.703125 2 -2.765625 1.78125 -2.765625 Z M 1.5625 -4.46875 L 1.96875 -4.46875 L 2.578125 -3.546875 L 2.140625 -3.546875 L 1.765625 -4.15625 L 1.75 -4.15625 L 1.375 -3.546875 L 0.96875 -3.546875 Z M 1.78125 0.515625 C 1.863281 0.515625 1.9375 0.546875 2 0.609375 C 2.0625 0.671875 2.09375 0.75 2.09375 0.84375 C 2.09375 0.9375 2.0625 1.015625 2 1.078125 C 1.9375 1.148438 1.859375 1.1875 1.765625 1.1875 C 1.671875 1.1875 1.59375 1.148438 1.53125 1.078125 C 1.476562 1.015625 1.453125 0.9375 1.453125 0.84375 C 1.453125 0.75 1.476562 0.671875 1.53125 0.609375 C 1.59375 0.546875 1.675781 0.515625 1.78125 0.515625 Z M 1.78125 0.515625 "/></g></g></g></g><g fill="#ffffff" fill-opacity="1"><g transform="translate(38.628512, 5.170058)"><g><path d="M 2.59375 -0.546875 L 2.703125 -0.109375 C 2.628906 -0.078125 2.507812 -0.0390625 2.34375 0 C 2.1875 0.0390625 2.003906 0.0625 1.796875 0.0625 C 1.484375 0.0625 1.207031 0 0.96875 -0.125 C 0.738281 -0.257812 0.5625 -0.445312 0.4375 -0.6875 C 0.3125 -0.925781 0.25 -1.207031 0.25 -1.53125 C 0.25 -1.851562 0.316406 -2.140625 0.453125 -2.390625 C 0.585938 -2.640625 0.78125 -2.832031 1.03125 -2.96875 C 1.28125 -3.113281 1.578125 -3.1875 1.921875 -3.1875 C 2.085938 -3.1875 2.238281 -3.164062 2.375 -3.125 C 2.519531 -3.09375 2.628906 -3.0625 2.703125 -3.03125 L 2.578125 -2.59375 C 2.515625 -2.625 2.425781 -2.65625 2.3125 -2.6875 C 2.207031 -2.71875 2.078125 -2.734375 1.921875 -2.734375 C 1.679688 -2.734375 1.476562 -2.679688 1.3125 -2.578125 C 1.15625 -2.472656 1.03125 -2.332031 0.9375 -2.15625 C 0.851562 -1.976562 0.8125 -1.78125 0.8125 -1.5625 C 0.8125 -1.3125 0.859375 -1.097656 0.953125 -0.921875 C 1.054688 -0.753906 1.1875 -0.625 1.34375 -0.53125 C 1.507812 -0.4375 1.695312 -0.390625 1.90625 -0.390625 C 2.070312 -0.390625 2.207031 -0.40625 2.3125 -0.4375 C 2.425781 -0.46875 2.519531 -0.503906 2.59375 -0.546875 Z M 2.59375 -0.546875 "/></g></g></g><g fill="#ffffff" fill-opacity="1"><g transform="translate(41.952982, 5.170058)"><g/></g></g><g fill="#ffffff" fill-opacity="1"><g transform="translate(43.754149, 5.170058)"><g><path d="M 0.25 -0.140625 L 0.390625 -0.578125 C 0.472656 -0.523438 0.582031 -0.472656 0.71875 -0.421875 C 0.851562 -0.378906 0.992188 -0.359375 1.140625 -0.359375 C 1.347656 -0.359375 1.5 -0.398438 1.59375 -0.484375 C 1.695312 -0.578125 1.75 -0.6875 1.75 -0.8125 C 1.75 -0.957031 1.703125 -1.070312 1.609375 -1.15625 C 1.523438 -1.238281 1.378906 -1.316406 1.171875 -1.390625 C 0.890625 -1.492188 0.679688 -1.617188 0.546875 -1.765625 C 0.410156 -1.921875 0.34375 -2.09375 0.34375 -2.28125 C 0.34375 -2.445312 0.382812 -2.597656 0.46875 -2.734375 C 0.550781 -2.867188 0.671875 -2.976562 0.828125 -3.0625 C 0.992188 -3.144531 1.191406 -3.1875 1.421875 -3.1875 C 1.578125 -3.1875 1.722656 -3.164062 1.859375 -3.125 C 1.992188 -3.09375 2.101562 -3.050781 2.1875 -3 L 2.046875 -2.59375 C 1.984375 -2.625 1.894531 -2.660156 1.78125 -2.703125 C 1.675781 -2.742188 1.550781 -2.765625 1.40625 -2.765625 C 1.238281 -2.765625 1.109375 -2.722656 1.015625 -2.640625 C 0.929688 -2.554688 0.890625 -2.457031 0.890625 -2.34375 C 0.890625 -2.21875 0.9375 -2.113281 1.03125 -2.03125 C 1.125 -1.957031 1.273438 -1.882812 1.484375 -1.8125 C 1.753906 -1.707031 1.957031 -1.582031 2.09375 -1.4375 C 2.226562 -1.289062 2.296875 -1.101562 2.296875 -0.875 C 2.296875 -0.59375 2.191406 -0.363281 1.984375 -0.1875 C 1.785156 -0.0195312 1.5 0.0625 1.125 0.0625 C 0.957031 0.0625 0.796875 0.0390625 0.640625 0 C 0.492188 -0.03125 0.363281 -0.078125 0.25 -0.140625 Z M 0.25 -0.140625 "/></g></g></g><g clip-path="url(#accd90dbcf)"><g fill="#ffffff" fill-opacity="1"><g transform="translate(46.742974, 5.170058)"><g><path d="M 1.796875 -3.1875 C 2.097656 -3.1875 2.359375 -3.117188 2.578125 -2.984375 C 2.804688 -2.847656 2.984375 -2.660156 3.109375 -2.421875 C 3.234375 -2.179688 3.296875 -1.90625 3.296875 -1.59375 C 3.296875 -1.300781 3.25 -1.050781 3.15625 -0.84375 C 3.070312 -0.632812 2.953125 -0.460938 2.796875 -0.328125 C 2.648438 -0.191406 2.484375 -0.0859375 2.296875 -0.015625 C 2.117188 0.046875 1.9375 0.078125 1.75 0.078125 C 1.46875 0.078125 1.210938 0.0078125 0.984375 -0.125 C 0.753906 -0.257812 0.570312 -0.445312 0.4375 -0.6875 C 0.3125 -0.925781 0.25 -1.207031 0.25 -1.53125 C 0.25 -1.882812 0.316406 -2.179688 0.453125 -2.421875 C 0.585938 -2.671875 0.769531 -2.859375 1 -2.984375 C 1.238281 -3.117188 1.503906 -3.1875 1.796875 -3.1875 Z M 1.78125 -2.765625 C 1.5625 -2.765625 1.378906 -2.703125 1.234375 -2.578125 C 1.085938 -2.460938 0.976562 -2.3125 0.90625 -2.125 C 0.84375 -1.945312 0.8125 -1.757812 0.8125 -1.5625 C 0.8125 -1.332031 0.851562 -1.125 0.9375 -0.9375 C 1.019531 -0.757812 1.128906 -0.617188 1.265625 -0.515625 C 1.410156 -0.410156 1.578125 -0.359375 1.765625 -0.359375 C 1.953125 -0.359375 2.113281 -0.410156 2.25 -0.515625 C 2.394531 -0.617188 2.507812 -0.757812 2.59375 -0.9375 C 2.675781 -1.125 2.71875 -1.332031 2.71875 -1.5625 C 2.71875 -1.738281 2.6875 -1.921875 2.625 -2.109375 C 2.5625 -2.296875 2.457031 -2.453125 2.3125 -2.578125 C 2.175781 -2.703125 2 -2.765625 1.78125 -2.765625 Z M 1.59375 -4.46875 L 2 -4.46875 L 2.5625 -3.546875 L 2.125 -3.546875 L 1.796875 -4.15625 L 1.78125 -4.15625 L 1.453125 -3.546875 L 1.046875 -3.546875 Z M 2.8125 -5 L 3.34375 -5 L 2.703125 -4.15625 L 2.375 -4.15625 Z M 2.8125 -5 "/></g></g></g></g><g fill="#ffffff" fill-opacity="1"><g transform="translate(50.719361, 5.170058)"><g><path d="M 0.46875 0 L 0.46875 -2.28125 C 0.46875 -2.4375 0.460938 -2.582031 0.453125 -2.71875 C 0.453125 -2.851562 0.445312 -2.988281 0.4375 -3.125 L 0.953125 -3.125 L 0.984375 -2.609375 L 1 -2.609375 C 1.070312 -2.753906 1.195312 -2.882812 1.375 -3 C 1.550781 -3.125 1.769531 -3.1875 2.03125 -3.1875 C 2.132812 -3.1875 2.25 -3.164062 2.375 -3.125 C 2.5 -3.09375 2.617188 -3.023438 2.734375 -2.921875 C 2.847656 -2.828125 2.941406 -2.691406 3.015625 -2.515625 C 3.085938 -2.347656 3.125 -2.128906 3.125 -1.859375 L 3.125 0 L 2.5625 0 L 2.5625 -1.796875 C 2.5625 -1.960938 2.535156 -2.113281 2.484375 -2.25 C 2.441406 -2.394531 2.367188 -2.507812 2.265625 -2.59375 C 2.160156 -2.675781 2.019531 -2.71875 1.84375 -2.71875 C 1.65625 -2.71875 1.492188 -2.660156 1.359375 -2.546875 C 1.222656 -2.429688 1.128906 -2.296875 1.078125 -2.140625 C 1.046875 -2.078125 1.03125 -1.988281 1.03125 -1.875 L 1.03125 0 Z M 0.46875 0 "/></g></g></g><g fill="#ffffff" fill-opacity="1"><g transform="translate(54.734482, 5.170058)"><g><path d="M 2.671875 -3.125 L 3.15625 -3.125 C 3.15625 -3.007812 3.148438 -2.882812 3.140625 -2.75 C 3.140625 -2.613281 3.140625 -2.453125 3.140625 -2.265625 L 3.140625 -0.453125 C 3.140625 -0.0976562 3.101562 0.191406 3.03125 0.421875 C 2.957031 0.648438 2.84375 0.832031 2.6875 0.96875 C 2.539062 1.113281 2.363281 1.210938 2.15625 1.265625 C 1.957031 1.316406 1.757812 1.34375 1.5625 1.34375 C 1.375 1.34375 1.179688 1.320312 0.984375 1.28125 C 0.796875 1.238281 0.640625 1.175781 0.515625 1.09375 L 0.65625 0.65625 C 0.757812 0.71875 0.890625 0.773438 1.046875 0.828125 C 1.203125 0.878906 1.378906 0.90625 1.578125 0.90625 C 1.867188 0.90625 2.109375 0.820312 2.296875 0.65625 C 2.484375 0.488281 2.578125 0.207031 2.578125 -0.1875 L 2.578125 -0.53125 L 2.5625 -0.53125 C 2.476562 -0.382812 2.351562 -0.257812 2.1875 -0.15625 C 2.019531 -0.0625 1.816406 -0.015625 1.578125 -0.015625 C 1.316406 -0.015625 1.085938 -0.078125 0.890625 -0.203125 C 0.691406 -0.335938 0.535156 -0.519531 0.421875 -0.75 C 0.304688 -0.988281 0.25 -1.25 0.25 -1.53125 C 0.25 -1.882812 0.316406 -2.1875 0.453125 -2.4375 C 0.585938 -2.6875 0.757812 -2.875 0.96875 -3 C 1.1875 -3.125 1.414062 -3.1875 1.65625 -3.1875 C 1.925781 -3.1875 2.132812 -3.128906 2.28125 -3.015625 C 2.4375 -2.898438 2.550781 -2.78125 2.625 -2.65625 L 2.640625 -2.65625 Z M 2.578125 -1.328125 L 2.578125 -1.890625 C 2.578125 -1.941406 2.570312 -1.988281 2.5625 -2.03125 C 2.5625 -2.070312 2.554688 -2.113281 2.546875 -2.15625 C 2.492188 -2.3125 2.398438 -2.445312 2.265625 -2.5625 C 2.128906 -2.6875 1.957031 -2.75 1.75 -2.75 C 1.476562 -2.75 1.253906 -2.640625 1.078125 -2.421875 C 0.898438 -2.210938 0.8125 -1.925781 0.8125 -1.5625 C 0.8125 -1.363281 0.847656 -1.175781 0.921875 -1 C 0.992188 -0.832031 1.097656 -0.695312 1.234375 -0.59375 C 1.367188 -0.488281 1.539062 -0.4375 1.75 -0.4375 C 1.914062 -0.4375 2.070312 -0.488281 2.21875 -0.59375 C 2.363281 -0.695312 2.46875 -0.84375 2.53125 -1.03125 C 2.550781 -1.070312 2.5625 -1.117188 2.5625 -1.171875 C 2.570312 -1.234375 2.578125 -1.285156 2.578125 -1.328125 Z M 2.578125 -1.328125 "/></g></g></g></g></g><g clip-path="url(#fbbfd7b097)"><g clip-path="url(#89c6b94a30)"><g transform="matrix(1, 0, 0, 1, 8, 8)"><g clip-path="url(#f0f382bf33)"><g clip-path="url(#b8619e6f9e)"><g clip-path="url(#ded0e9deb2)"><rect x="-34.565" width="173.88" fill="#5750f1" height="131.76" y="-28.13" fill-opacity="1"/></g></g></g></g></g></g><g clip-path="url(#59b5b88af4)"><g clip-path="url(#3cd0e2fe51)"><g transform="matrix(1, 0, 0, 1, 13, 39)"><g clip-path="url(#2a4277dfaa)"><g clip-path="url(#e8daa0f5ef)"><g clip-path="url(#7f3102b3e1)"><rect x="-39.565" width="173.88" fill="#4e47e1" height="131.76" y="-59.13" fill-opacity="1"/></g></g></g></g></g></g><g clip-path="url(#10e9d99902)"><g clip-path="url(#75f2dcaf28)"><g transform="matrix(1, 0, 0, 1, 26, 54)"><g clip-path="url(#f79891ecbb)"><g clip-path="url(#86270e8124)"><g clip-path="url(#d23a0745e9)"><rect x="-52.565" width="173.88" fill="#524be8" height="131.76" y="-74.13" fill-opacity="1"/></g></g></g></g></g></g></svg>