<svg xmlns="http://www.w3.org/2000/svg" xmlns:xlink="http://www.w3.org/1999/xlink" width="398" zoomAndPan="magnify" viewBox="0 0 298.5 62.249996" height="83" preserveAspectRatio="xMidYMid meet" version="1.0"><defs><g/><clipPath id="6103566322"><path d="M 7 6.898438 L 73.148438 6.898438 L 73.148438 43.277344 L 7 43.277344 Z M 7 6.898438 " clip-rule="nonzero"/></clipPath><clipPath id="485c52528a"><path d="M 7.074219 27.371094 L 39.535156 41.417969 C 39.890625 41.574219 40.277344 41.308594 40.277344 40.929688 L 40.277344 38.570312 C 40.277344 38.359375 40.15625 38.171875 39.964844 38.082031 L 7.449219 23.570312 C 7.21875 23.46875 7.074219 23.238281 7.074219 22.992188 L 7.074219 22.039062 C 7.074219 21.785156 7.21875 21.5625 7.449219 21.464844 L 39.136719 7.230469 C 39.855469 6.90625 40.6875 6.90625 41.40625 7.238281 L 71.707031 21.21875 C 72.550781 21.609375 73.09375 22.449219 73.09375 23.382812 L 73.09375 26.417969 C 73.09375 27.339844 72.5625 28.183594 71.71875 28.582031 L 40.554688 43.191406 C 40.375 43.269531 40.175781 43.28125 39.988281 43.203125 L 7.449219 28.914062 C 7.21875 28.8125 7.074219 28.582031 7.074219 28.335938 Z M 7.074219 27.371094 " clip-rule="nonzero"/></clipPath><clipPath id="7d98f61a3d"><path d="M 0 0.898438 L 66.148438 0.898438 L 66.148438 37.277344 L 0 37.277344 Z M 0 0.898438 " clip-rule="nonzero"/></clipPath><clipPath id="c273a5fcd9"><path d="M 0.0742188 21.371094 L 32.535156 35.417969 C 32.890625 35.574219 33.277344 35.308594 33.277344 34.929688 L 33.277344 32.570312 C 33.277344 32.359375 33.15625 32.171875 32.964844 32.082031 L 0.449219 17.570312 C 0.21875 17.46875 0.0742188 17.238281 0.0742188 16.992188 L 0.0742188 16.039062 C 0.0742188 15.785156 0.21875 15.5625 0.449219 15.464844 L 32.136719 1.230469 C 32.855469 0.90625 33.6875 0.90625 34.40625 1.238281 L 64.707031 15.21875 C 65.550781 15.609375 66.09375 16.449219 66.09375 17.382812 L 66.09375 20.417969 C 66.09375 21.339844 65.5625 22.183594 64.71875 22.582031 L 33.554688 37.191406 C 33.375 37.269531 33.175781 37.28125 32.988281 37.203125 L 0.449219 22.914062 C 0.21875 22.8125 0.0742188 22.582031 0.0742188 22.335938 Z M 0.0742188 21.371094 " clip-rule="nonzero"/></clipPath><clipPath id="7a2addbcef"><rect x="0" width="67" y="0" height="38"/></clipPath><clipPath id="29b559c127"><path d="M 10 26.90625 L 14.261719 26.90625 L 14.261719 54.1875 L 10 54.1875 Z M 10 26.90625 " clip-rule="nonzero"/></clipPath><clipPath id="6cbfacd4a8"><path d="M 10.632812 26.972656 C 10.367188 26.851562 10.078125 27.050781 10.078125 27.339844 L 10.078125 53.859375 L 11.929688 51.996094 L 14.035156 54.101562 L 14.035156 28.757812 C 14.035156 28.601562 13.945312 28.460938 13.800781 28.394531 Z M 10.632812 26.972656 " clip-rule="nonzero"/></clipPath><clipPath id="f8d48283cb"><path d="M 0.0664062 0.90625 L 4.097656 0.90625 L 4.097656 28.1875 L 0.0664062 28.1875 Z M 0.0664062 0.90625 " clip-rule="nonzero"/></clipPath><clipPath id="25b707beec"><path d="M 0.632812 0.972656 C 0.367188 0.851562 0.078125 1.050781 0.078125 1.339844 L 0.078125 27.859375 L 1.929688 25.996094 L 4.035156 28.101562 L 4.035156 2.757812 C 4.035156 2.601562 3.945312 2.460938 3.800781 2.394531 Z M 0.632812 0.972656 " clip-rule="nonzero"/></clipPath><clipPath id="3b1806cc79"><rect x="0" width="5" y="0" height="29"/></clipPath><clipPath id="9fc674f116"><path d="M 18.128906 36.226562 L 62.234375 36.226562 L 62.234375 51.460938 L 18.128906 51.460938 Z M 18.128906 36.226562 " clip-rule="nonzero"/></clipPath><clipPath id="a6f43a04d8"><path d="M 18.667969 36.417969 L 40.132812 45.777344 C 40.222656 45.820312 40.332031 45.820312 40.421875 45.777344 L 61.652344 36.417969 C 61.882812 36.308594 62.160156 36.484375 62.160156 36.753906 L 62.160156 42.992188 C 62.160156 43.601562 61.894531 44.179688 61.429688 44.578125 C 59.289062 46.398438 52.425781 51.273438 40.277344 51.273438 C 28.160156 51.273438 21.109375 46.265625 18.914062 44.414062 C 18.449219 44.011719 18.171875 43.4375 18.171875 42.828125 L 18.171875 36.753906 C 18.171875 36.496094 18.4375 36.320312 18.667969 36.417969 " clip-rule="nonzero"/></clipPath><clipPath id="357611c2be"><path d="M 0.128906 0.28125 L 44.234375 0.28125 L 44.234375 15.460938 L 0.128906 15.460938 Z M 0.128906 0.28125 " clip-rule="nonzero"/></clipPath><clipPath id="1b76dcb6e5"><path d="M 0.667969 0.417969 L 22.132812 9.777344 C 22.222656 9.820312 22.332031 9.820312 22.421875 9.777344 L 43.652344 0.417969 C 43.882812 0.308594 44.160156 0.484375 44.160156 0.753906 L 44.160156 6.992188 C 44.160156 7.601562 43.894531 8.179688 43.429688 8.578125 C 41.289062 10.398438 34.425781 15.273438 22.277344 15.273438 C 10.160156 15.273438 3.109375 10.265625 0.914062 8.414062 C 0.449219 8.011719 0.171875 7.4375 0.171875 6.828125 L 0.171875 0.753906 C 0.171875 0.496094 0.4375 0.320312 0.667969 0.417969 " clip-rule="nonzero"/></clipPath><clipPath id="2f7cc62af0"><rect x="0" width="45" y="0" height="16"/></clipPath></defs><g clip-path="url(#6103566322)"><g clip-path="url(#485c52528a)"><g transform="matrix(1, 0, 0, 1, 7, 6)"><g clip-path="url(#7a2addbcef)"><g clip-path="url(#7d98f61a3d)"><g clip-path="url(#c273a5fcd9)"><rect x="-72.67" width="429.84" fill="#5750f1" height="89.639995" y="-19.694999" fill-opacity="1"/></g></g></g></g></g></g><g clip-path="url(#29b559c127)"><g clip-path="url(#6cbfacd4a8)"><g transform="matrix(1, 0, 0, 1, 10, 26)"><g clip-path="url(#3b1806cc79)"><g clip-path="url(#f8d48283cb)"><g clip-path="url(#25b707beec)"><rect x="-75.67" width="429.84" fill="#5750f1" height="89.639995" y="-39.694999" fill-opacity="1"/></g></g></g></g></g></g><g clip-path="url(#9fc674f116)"><g clip-path="url(#a6f43a04d8)"><g transform="matrix(1, 0, 0, 1, 18, 36)"><g clip-path="url(#2f7cc62af0)"><g clip-path="url(#357611c2be)"><g clip-path="url(#1b76dcb6e5)"><rect x="-83.67" width="429.84" fill="#5750f1" height="89.639995" y="-49.694999" fill-opacity="1"/></g></g></g></g></g></g><g fill="#ffffff" fill-opacity="1"><g transform="translate(98.662247, 42.400806)"><g><path d="M 18.296875 0 L 13.625 -6.75 L 8.46875 -6.75 L 8.46875 0 L 2.875 0 L 2.875 -24.203125 L 13.34375 -24.203125 C 15.488281 -24.203125 17.347656 -23.84375 18.921875 -23.125 C 20.503906 -22.414062 21.722656 -21.40625 22.578125 -20.09375 C 23.429688 -18.78125 23.859375 -17.222656 23.859375 -15.421875 C 23.859375 -13.617188 23.425781 -12.066406 22.5625 -10.765625 C 21.695312 -9.460938 20.46875 -8.46875 18.875 -7.78125 L 24.3125 0 Z M 18.1875 -15.421875 C 18.1875 -16.785156 17.75 -17.828125 16.875 -18.546875 C 16 -19.273438 14.71875 -19.640625 13.03125 -19.640625 L 8.46875 -19.640625 L 8.46875 -11.203125 L 13.03125 -11.203125 C 14.71875 -11.203125 16 -11.570312 16.875 -12.3125 C 17.75 -13.050781 18.1875 -14.085938 18.1875 -15.421875 Z M 18.1875 -15.421875 "/></g></g></g><g fill="#ffffff" fill-opacity="1"><g transform="translate(130.463555, 42.400806)"><g><path d="M 21.609375 -4.5 L 21.609375 0 L 2.875 0 L 2.875 -24.203125 L 21.15625 -24.203125 L 21.15625 -19.703125 L 8.4375 -19.703125 L 8.4375 -14.453125 L 19.671875 -14.453125 L 19.671875 -10.09375 L 8.4375 -10.09375 L 8.4375 -4.5 Z M 21.609375 -4.5 "/></g></g></g><g fill="#ffffff" fill-opacity="1"><g transform="translate(160.052765, 42.400806)"><g><path d="M 18.8125 -5.1875 L 7.578125 -5.1875 L 5.421875 0 L -0.3125 0 L 10.484375 -24.203125 L 16.015625 -24.203125 L 26.828125 0 L 20.953125 0 Z M 17.046875 -9.4375 L 13.203125 -18.703125 L 9.375 -9.4375 Z M 17.046875 -9.4375 "/></g></g></g><g fill="#ffffff" fill-opacity="1"><g transform="translate(192.92556, 42.400806)"><g><path d="M 2.875 -24.203125 L 13.859375 -24.203125 C 16.492188 -24.203125 18.816406 -23.703125 20.828125 -22.703125 C 22.847656 -21.703125 24.414062 -20.289062 25.53125 -18.46875 C 26.65625 -16.644531 27.21875 -14.523438 27.21875 -12.109375 C 27.21875 -9.679688 26.65625 -7.554688 25.53125 -5.734375 C 24.414062 -3.921875 22.847656 -2.507812 20.828125 -1.5 C 18.816406 -0.5 16.492188 0 13.859375 0 L 2.875 0 Z M 13.59375 -4.59375 C 16.007812 -4.59375 17.9375 -5.265625 19.375 -6.609375 C 20.820312 -7.960938 21.546875 -9.796875 21.546875 -12.109375 C 21.546875 -14.410156 20.820312 -16.234375 19.375 -17.578125 C 17.9375 -18.929688 16.007812 -19.609375 13.59375 -19.609375 L 8.46875 -19.609375 L 8.46875 -4.59375 Z M 13.59375 -4.59375 "/></g></g></g><g fill="#ffffff" fill-opacity="1"><g transform="translate(227.872192, 42.400806)"><g><path d="M 21.609375 -4.5 L 21.609375 0 L 2.875 0 L 2.875 -24.203125 L 21.15625 -24.203125 L 21.15625 -19.703125 L 8.4375 -19.703125 L 8.4375 -14.453125 L 19.671875 -14.453125 L 19.671875 -10.09375 L 8.4375 -10.09375 L 8.4375 -4.5 Z M 21.609375 -4.5 "/></g></g></g><g fill="#ffffff" fill-opacity="1"><g transform="translate(257.461401, 42.400806)"><g><path d="M 21.609375 -4.5 L 21.609375 0 L 2.875 0 L 2.875 -24.203125 L 21.15625 -24.203125 L 21.15625 -19.703125 L 8.4375 -19.703125 L 8.4375 -14.453125 L 19.671875 -14.453125 L 19.671875 -10.09375 L 8.4375 -10.09375 L 8.4375 -4.5 Z M 21.609375 -4.5 "/></g></g></g></svg>