<svg xmlns="http://www.w3.org/2000/svg" xmlns:xlink="http://www.w3.org/1999/xlink" width="129" zoomAndPan="magnify" viewBox="0 0 96.75 98.999996" height="132" preserveAspectRatio="xMidYMid meet" version="1.0"><defs><g/><clipPath id="6ebd46a592"><path d="M 7.519531 6.808594 L 88.515625 6.808594 L 88.515625 51.339844 L 7.519531 51.339844 Z M 7.519531 6.808594 " clip-rule="nonzero"/></clipPath><clipPath id="6d25ae6f43"><path d="M 7.625 31.871094 L 47.367188 49.066406 C 47.800781 49.257812 48.273438 48.933594 48.273438 48.472656 L 48.273438 45.582031 C 48.273438 45.324219 48.125 45.089844 47.894531 44.984375 L 8.089844 27.21875 C 7.804688 27.09375 7.625 26.808594 7.625 26.511719 L 7.625 25.34375 C 7.625 25.03125 7.804688 24.761719 8.089844 24.636719 L 46.875 7.210938 C 47.757812 6.820312 48.777344 6.820312 49.660156 7.226562 L 86.75 24.339844 C 87.78125 24.816406 88.449219 25.847656 88.449219 26.988281 L 88.449219 30.707031 C 88.449219 31.832031 87.796875 32.863281 86.765625 33.351562 L 48.613281 51.238281 C 48.398438 51.335938 48.152344 51.347656 47.921875 51.253906 L 8.089844 33.757812 C 7.804688 33.636719 7.625 33.351562 7.625 33.054688 Z M 7.625 31.871094 " clip-rule="nonzero"/></clipPath><clipPath id="deb8186779"><path d="M 0.519531 0.808594 L 81.515625 0.808594 L 81.515625 45.339844 L 0.519531 45.339844 Z M 0.519531 0.808594 " clip-rule="nonzero"/></clipPath><clipPath id="c666307aa2"><path d="M 0.625 25.871094 L 40.367188 43.066406 C 40.800781 43.257812 41.273438 42.933594 41.273438 42.472656 L 41.273438 39.582031 C 41.273438 39.324219 41.125 39.089844 40.894531 38.984375 L 1.089844 21.21875 C 0.804688 21.09375 0.625 20.808594 0.625 20.511719 L 0.625 19.34375 C 0.625 19.03125 0.804688 18.761719 1.089844 18.636719 L 39.875 1.210938 C 40.757812 0.820312 41.777344 0.820312 42.660156 1.226562 L 79.75 18.339844 C 80.78125 18.816406 81.449219 19.847656 81.449219 20.988281 L 81.449219 24.707031 C 81.449219 25.832031 80.796875 26.863281 79.765625 27.351562 L 41.613281 45.238281 C 41.398438 45.335938 41.152344 45.347656 40.921875 45.253906 L 1.089844 27.757812 C 0.804688 27.636719 0.625 27.351562 0.625 27.054688 Z M 0.625 25.871094 " clip-rule="nonzero"/></clipPath><clipPath id="a297ca1350"><rect x="0" width="82" y="0" height="46"/></clipPath><clipPath id="92f15af3f2"><path d="M 11.140625 31.300781 L 16.425781 31.300781 L 16.425781 64.699219 L 11.140625 64.699219 Z M 11.140625 31.300781 " clip-rule="nonzero"/></clipPath><clipPath id="416aa58b85"><path d="M 11.984375 31.382812 C 11.65625 31.234375 11.304688 31.480469 11.304688 31.832031 L 11.304688 64.296875 L 13.570312 62.015625 L 16.148438 64.59375 L 16.148438 33.570312 C 16.148438 33.378906 16.042969 33.203125 15.863281 33.121094 Z M 11.984375 31.382812 " clip-rule="nonzero"/></clipPath><clipPath id="dcd7d31e45"><path d="M 0.25 0.300781 L 5.277344 0.300781 L 5.277344 33.699219 L 0.25 33.699219 Z M 0.25 0.300781 " clip-rule="nonzero"/></clipPath><clipPath id="8e95626446"><path d="M 0.984375 0.382812 C 0.65625 0.234375 0.304688 0.480469 0.304688 0.832031 L 0.304688 33.296875 L 2.570312 31.015625 L 5.148438 33.59375 L 5.148438 2.570312 C 5.148438 2.378906 5.042969 2.203125 4.863281 2.121094 Z M 0.984375 0.382812 " clip-rule="nonzero"/></clipPath><clipPath id="4caa9d8f57"><rect x="0" width="6" y="0" height="34"/></clipPath><clipPath id="ce576a5dd2"><path d="M 21.160156 42.710938 L 75.15625 42.710938 L 75.15625 61.359375 L 21.160156 61.359375 Z M 21.160156 42.710938 " clip-rule="nonzero"/></clipPath><clipPath id="f7019708a5"><path d="M 21.824219 42.949219 L 48.097656 54.402344 C 48.207031 54.457031 48.34375 54.457031 48.453125 54.402344 L 74.441406 42.949219 C 74.726562 42.8125 75.066406 43.027344 75.066406 43.355469 L 75.066406 50.996094 C 75.066406 51.742188 74.742188 52.449219 74.171875 52.9375 C 71.550781 55.164062 63.148438 61.132812 48.273438 61.132812 C 33.441406 61.132812 24.808594 55 22.121094 52.734375 C 21.550781 52.246094 21.210938 51.539062 21.210938 50.792969 L 21.210938 43.355469 C 21.210938 43.042969 21.539062 42.824219 21.824219 42.949219 " clip-rule="nonzero"/></clipPath><clipPath id="8bf8659dd9"><path d="M 0.160156 0.738281 L 54.15625 0.738281 L 54.15625 19.167969 L 0.160156 19.167969 Z M 0.160156 0.738281 " clip-rule="nonzero"/></clipPath><clipPath id="5737a8163f"><path d="M 0.824219 0.949219 L 27.097656 12.402344 C 27.207031 12.457031 27.34375 12.457031 27.453125 12.402344 L 53.441406 0.949219 C 53.726562 0.8125 54.066406 1.027344 54.066406 1.355469 L 54.066406 8.996094 C 54.066406 9.742188 53.742188 10.449219 53.171875 10.9375 C 50.550781 13.164062 42.148438 19.132812 27.273438 19.132812 C 12.441406 19.132812 3.808594 13 1.121094 10.734375 C 0.550781 10.246094 0.210938 9.539062 0.210938 8.792969 L 0.210938 1.355469 C 0.210938 1.042969 0.539062 0.824219 0.824219 0.949219 " clip-rule="nonzero"/></clipPath><clipPath id="988802d6c4"><rect x="0" width="55" y="0" height="20"/></clipPath><clipPath id="d4fda40f57"><path d="M 6 66 L 96.5 66 L 96.5 94 L 6 94 Z M 6 66 " clip-rule="nonzero"/></clipPath><clipPath id="f44f5b68ab"><path d="M 68 22 L 72 22 L 72 27.964844 L 68 27.964844 Z M 68 22 " clip-rule="nonzero"/></clipPath><clipPath id="a857704f12"><rect x="0" width="91" y="0" height="28"/></clipPath></defs><g clip-path="url(#6ebd46a592)"><g clip-path="url(#6d25ae6f43)"><g transform="matrix(1, 0, 0, 1, 7, 6)"><g clip-path="url(#a297ca1350)"><g clip-path="url(#deb8186779)"><g clip-path="url(#c666307aa2)"><rect x="-28.285" width="139.32" fill="#5750f1" height="142.559994" y="-27.779999" fill-opacity="1"/></g></g></g></g></g></g><g clip-path="url(#92f15af3f2)"><g clip-path="url(#416aa58b85)"><g transform="matrix(1, 0, 0, 1, 11, 31)"><g clip-path="url(#4caa9d8f57)"><g clip-path="url(#dcd7d31e45)"><g clip-path="url(#8e95626446)"><rect x="-32.285" width="139.32" fill="#4e47e1" height="142.559994" y="-52.779999" fill-opacity="1"/></g></g></g></g></g></g><g clip-path="url(#ce576a5dd2)"><g clip-path="url(#f7019708a5)"><g transform="matrix(1, 0, 0, 1, 21, 42)"><g clip-path="url(#988802d6c4)"><g clip-path="url(#8bf8659dd9)"><g clip-path="url(#5737a8163f)"><rect x="-42.285" width="139.32" fill="#524be8" height="142.559994" y="-63.779999" fill-opacity="1"/></g></g></g></g></g></g><g clip-path="url(#d4fda40f57)"><g transform="matrix(1, 0, 0, 1, 6, 66)"><g clip-path="url(#a857704f12)"><g fill="#ffffff" fill-opacity="1"><g transform="translate(1.127542, 15.517901)"><g><path d="M 9.359375 0 L 6.9375 -3.46875 C 6.832031 -3.457031 6.675781 -3.453125 6.46875 -3.453125 L 3.796875 -3.453125 L 3.796875 0 L 1.59375 0 L 1.59375 -11.875 L 6.46875 -11.875 C 7.5 -11.875 8.394531 -11.703125 9.15625 -11.359375 C 9.925781 -11.015625 10.515625 -10.523438 10.921875 -9.890625 C 11.328125 -9.265625 11.53125 -8.515625 11.53125 -7.640625 C 11.53125 -6.753906 11.3125 -5.988281 10.875 -5.34375 C 10.4375 -4.695312 9.8125 -4.21875 9 -3.90625 L 11.734375 0 Z M 9.3125 -7.640625 C 9.3125 -8.398438 9.0625 -8.984375 8.5625 -9.390625 C 8.0625 -9.796875 7.332031 -10 6.375 -10 L 3.796875 -10 L 3.796875 -5.265625 L 6.375 -5.265625 C 7.332031 -5.265625 8.0625 -5.472656 8.5625 -5.890625 C 9.0625 -6.304688 9.3125 -6.890625 9.3125 -7.640625 Z M 9.3125 -7.640625 "/></g></g></g><g fill="#ffffff" fill-opacity="1"><g transform="translate(16.645443, 15.517901)"><g><path d="M 10.5 -1.84375 L 10.5 0 L 1.59375 0 L 1.59375 -11.875 L 10.25 -11.875 L 10.25 -10.015625 L 3.796875 -10.015625 L 3.796875 -6.9375 L 9.53125 -6.9375 L 9.53125 -5.125 L 3.796875 -5.125 L 3.796875 -1.84375 Z M 10.5 -1.84375 "/></g></g></g><g fill="#ffffff" fill-opacity="1"><g transform="translate(31.130093, 15.517901)"><g><path d="M 9.296875 -2.75 L 3.359375 -2.75 L 2.1875 0 L -0.078125 0 L 5.25 -11.875 L 7.421875 -11.875 L 12.78125 0 L 10.484375 0 Z M 8.5625 -4.46875 L 6.328125 -9.65625 L 4.109375 -4.46875 Z M 8.5625 -4.46875 "/></g></g></g><g fill="#ffffff" fill-opacity="1"><g transform="translate(46.952887, 15.517901)"><g><path d="M 1.59375 -11.875 L 6.78125 -11.875 C 8.050781 -11.875 9.175781 -11.625 10.15625 -11.125 C 11.132812 -10.632812 11.894531 -9.941406 12.4375 -9.046875 C 12.976562 -8.148438 13.25 -7.113281 13.25 -5.9375 C 13.25 -4.757812 12.976562 -3.71875 12.4375 -2.8125 C 11.894531 -1.914062 11.132812 -1.222656 10.15625 -0.734375 C 9.175781 -0.242188 8.050781 0 6.78125 0 L 1.59375 0 Z M 6.671875 -1.859375 C 7.546875 -1.859375 8.3125 -2.023438 8.96875 -2.359375 C 9.632812 -2.691406 10.144531 -3.164062 10.5 -3.78125 C 10.851562 -4.40625 11.03125 -5.125 11.03125 -5.9375 C 11.03125 -6.75 10.851562 -7.460938 10.5 -8.078125 C 10.144531 -8.691406 9.632812 -9.164062 8.96875 -9.5 C 8.3125 -9.832031 7.546875 -10 6.671875 -10 L 3.796875 -10 L 3.796875 -1.859375 Z M 6.671875 -1.859375 "/></g></g></g><g fill="#ffffff" fill-opacity="1"><g transform="translate(64.079966, 15.517901)"><g><path d="M 10.5 -1.84375 L 10.5 0 L 1.59375 0 L 1.59375 -11.875 L 10.25 -11.875 L 10.25 -10.015625 L 3.796875 -10.015625 L 3.796875 -6.9375 L 9.53125 -6.9375 L 9.53125 -5.125 L 3.796875 -5.125 L 3.796875 -1.84375 Z M 10.5 -1.84375 "/></g></g></g><g fill="#ffffff" fill-opacity="1"><g transform="translate(78.564616, 15.517901)"><g><path d="M 10.5 -1.84375 L 10.5 0 L 1.59375 0 L 1.59375 -11.875 L 10.25 -11.875 L 10.25 -10.015625 L 3.796875 -10.015625 L 3.796875 -6.9375 L 9.53125 -6.9375 L 9.53125 -5.125 L 3.796875 -5.125 L 3.796875 -1.84375 Z M 10.5 -1.84375 "/></g></g></g><g fill="#ffffff" fill-opacity="1"><g transform="translate(14.980599, 25.696955)"><g><path d="M 1.3125 0 L 1.3125 -3.875 L 0 -3.875 L 0 -4.359375 L 3.21875 -4.359375 L 3.21875 -3.875 L 1.890625 -3.875 L 1.890625 0 Z M 1.3125 0 "/></g></g></g><g fill="#ffffff" fill-opacity="1"><g transform="translate(18.631816, 25.696955)"><g><path d="M 0.46875 0 L 0.46875 -2.15625 C 0.46875 -2.34375 0.460938 -2.515625 0.453125 -2.671875 C 0.453125 -2.828125 0.453125 -2.976562 0.453125 -3.125 L 0.9375 -3.125 L 0.96875 -2.515625 L 0.984375 -2.515625 C 1.054688 -2.722656 1.171875 -2.890625 1.328125 -3.015625 C 1.492188 -3.140625 1.671875 -3.203125 1.859375 -3.203125 C 1.910156 -3.203125 1.960938 -3.195312 2.015625 -3.1875 L 2.015625 -2.640625 C 1.960938 -2.660156 1.898438 -2.671875 1.828125 -2.671875 C 1.628906 -2.671875 1.460938 -2.597656 1.328125 -2.453125 C 1.191406 -2.316406 1.101562 -2.144531 1.0625 -1.9375 C 1.050781 -1.894531 1.039062 -1.847656 1.03125 -1.796875 C 1.03125 -1.753906 1.03125 -1.710938 1.03125 -1.671875 L 1.03125 0 Z M 0.46875 0 "/></g></g></g><g fill="#ffffff" fill-opacity="1"><g transform="translate(21.182575, 25.696955)"><g><path d="M 1.046875 0 L 0.46875 0 L 0.46875 -3.125 L 1.046875 -3.125 Z M 0.75 -4.359375 C 0.863281 -4.359375 0.953125 -4.320312 1.015625 -4.25 C 1.078125 -4.1875 1.109375 -4.109375 1.109375 -4.015625 C 1.109375 -3.921875 1.070312 -3.835938 1 -3.765625 C 0.9375 -3.691406 0.851562 -3.65625 0.75 -3.65625 C 0.644531 -3.65625 0.5625 -3.691406 0.5 -3.765625 C 0.4375 -3.835938 0.40625 -3.921875 0.40625 -4.015625 C 0.40625 -4.109375 0.4375 -4.1875 0.5 -4.25 C 0.570312 -4.320312 0.65625 -4.359375 0.75 -4.359375 Z M 0.75 -4.359375 "/></g></g></g><g fill="#ffffff" fill-opacity="1"><g transform="translate(23.131329, 25.696955)"><g/></g></g><g fill="#ffffff" fill-opacity="1"><g transform="translate(24.93767, 25.696955)"><g><path d="M 0.609375 -3.875 L 1.15625 -4.03125 L 1.15625 -3.125 L 1.96875 -3.125 L 1.96875 -2.703125 L 1.15625 -2.703125 L 1.15625 -1.015625 C 1.15625 -0.816406 1.1875 -0.664062 1.25 -0.5625 C 1.3125 -0.457031 1.421875 -0.40625 1.578125 -0.40625 C 1.648438 -0.40625 1.710938 -0.40625 1.765625 -0.40625 C 1.828125 -0.414062 1.878906 -0.425781 1.921875 -0.4375 L 1.9375 -0.015625 C 1.882812 0.00390625 1.816406 0.0195312 1.734375 0.03125 C 1.648438 0.0507812 1.550781 0.0625 1.4375 0.0625 C 1.164062 0.0625 0.960938 -0.015625 0.828125 -0.171875 C 0.742188 -0.253906 0.6875 -0.363281 0.65625 -0.5 C 0.625 -0.644531 0.609375 -0.804688 0.609375 -0.984375 L 0.609375 -2.703125 L 0.109375 -2.703125 L 0.109375 -3.125 L 0.609375 -3.125 Z M 0.609375 -3.875 "/></g></g></g><g fill="#ffffff" fill-opacity="1"><g transform="translate(27.51432, 25.696955)"><g><path d="M 0.46875 0 L 0.46875 -4.59375 L 1.046875 -4.59375 L 1.046875 -2.640625 C 1.148438 -2.804688 1.289062 -2.941406 1.46875 -3.046875 C 1.550781 -3.085938 1.640625 -3.125 1.734375 -3.15625 C 1.828125 -3.1875 1.929688 -3.203125 2.046875 -3.203125 C 2.148438 -3.203125 2.265625 -3.179688 2.390625 -3.140625 C 2.515625 -3.097656 2.632812 -3.023438 2.75 -2.921875 C 2.863281 -2.828125 2.957031 -2.691406 3.03125 -2.515625 C 3.101562 -2.347656 3.140625 -2.128906 3.140625 -1.859375 L 3.140625 0 L 2.5625 0 L 2.5625 -1.796875 C 2.5625 -1.960938 2.539062 -2.117188 2.5 -2.265625 C 2.457031 -2.410156 2.378906 -2.523438 2.265625 -2.609375 C 2.160156 -2.691406 2.019531 -2.734375 1.84375 -2.734375 C 1.65625 -2.734375 1.492188 -2.675781 1.359375 -2.5625 C 1.222656 -2.445312 1.128906 -2.3125 1.078125 -2.15625 C 1.054688 -2.125 1.046875 -2.082031 1.046875 -2.03125 C 1.046875 -1.988281 1.046875 -1.941406 1.046875 -1.890625 L 1.046875 0 Z M 0.46875 0 "/></g></g></g><g fill="#ffffff" fill-opacity="1"><g transform="translate(31.540977, 25.696955)"><g><path d="M 3.15625 -3.765625 L 3.59375 -3.828125 C 3.625 -3.765625 3.648438 -3.691406 3.671875 -3.609375 C 3.703125 -3.535156 3.71875 -3.453125 3.71875 -3.359375 C 3.71875 -3.203125 3.664062 -3.070312 3.5625 -2.96875 C 3.457031 -2.875 3.320312 -2.828125 3.15625 -2.828125 L 3.09375 -2.8125 L 3.09375 -0.859375 C 3.09375 -0.691406 3.09375 -0.535156 3.09375 -0.390625 C 3.101562 -0.253906 3.113281 -0.125 3.125 0 L 2.609375 0 L 2.578125 -0.515625 L 2.5625 -0.515625 C 2.519531 -0.429688 2.453125 -0.34375 2.359375 -0.25 C 2.265625 -0.15625 2.148438 -0.078125 2.015625 -0.015625 C 1.878906 0.046875 1.71875 0.078125 1.53125 0.078125 C 1.414062 0.078125 1.289062 0.0546875 1.15625 0.015625 C 1.03125 -0.0234375 0.910156 -0.0976562 0.796875 -0.203125 C 0.691406 -0.304688 0.609375 -0.445312 0.546875 -0.625 C 0.484375 -0.800781 0.453125 -1.023438 0.453125 -1.296875 L 0.453125 -3.125 L 1.015625 -3.125 L 1.015625 -1.390625 C 1.015625 -1.097656 1.066406 -0.859375 1.171875 -0.671875 C 1.273438 -0.492188 1.457031 -0.40625 1.71875 -0.40625 C 1.90625 -0.40625 2.0625 -0.457031 2.1875 -0.5625 C 2.320312 -0.675781 2.414062 -0.796875 2.46875 -0.921875 C 2.5 -1.003906 2.515625 -1.097656 2.515625 -1.203125 L 2.515625 -3.125 L 2.96875 -3.125 C 3.082031 -3.125 3.160156 -3.144531 3.203125 -3.1875 C 3.242188 -3.238281 3.265625 -3.304688 3.265625 -3.390625 C 3.265625 -3.441406 3.253906 -3.5 3.234375 -3.5625 C 3.222656 -3.632812 3.195312 -3.703125 3.15625 -3.765625 Z M 2.140625 -4.484375 L 2.765625 -4.484375 L 1.984375 -3.5625 L 1.578125 -3.5625 Z M 2.140625 -4.484375 "/></g></g></g><g fill="#ffffff" fill-opacity="1"><g transform="translate(35.541742, 25.696955)"><g><path d="M 2.609375 -0.546875 L 2.703125 -0.109375 C 2.628906 -0.078125 2.515625 -0.0390625 2.359375 0 C 2.203125 0.0390625 2.019531 0.0625 1.8125 0.0625 C 1.488281 0.0625 1.210938 -0.00390625 0.984375 -0.140625 C 0.753906 -0.273438 0.570312 -0.457031 0.4375 -0.6875 C 0.3125 -0.925781 0.25 -1.207031 0.25 -1.53125 C 0.25 -1.851562 0.316406 -2.140625 0.453125 -2.390625 C 0.585938 -2.640625 0.78125 -2.835938 1.03125 -2.984375 C 1.289062 -3.128906 1.585938 -3.203125 1.921875 -3.203125 C 2.097656 -3.203125 2.253906 -3.179688 2.390625 -3.140625 C 2.523438 -3.109375 2.632812 -3.070312 2.71875 -3.03125 L 2.59375 -2.59375 C 2.519531 -2.632812 2.425781 -2.671875 2.3125 -2.703125 C 2.207031 -2.734375 2.078125 -2.75 1.921875 -2.75 C 1.691406 -2.75 1.492188 -2.691406 1.328125 -2.578125 C 1.160156 -2.472656 1.035156 -2.332031 0.953125 -2.15625 C 0.867188 -1.976562 0.828125 -1.78125 0.828125 -1.5625 C 0.828125 -1.320312 0.875 -1.113281 0.96875 -0.9375 C 1.0625 -0.757812 1.1875 -0.625 1.34375 -0.53125 C 1.507812 -0.4375 1.695312 -0.390625 1.90625 -0.390625 C 2.070312 -0.390625 2.207031 -0.40625 2.3125 -0.4375 C 2.425781 -0.46875 2.523438 -0.503906 2.609375 -0.546875 Z M 2.609375 -0.546875 "/></g></g></g><g fill="#ffffff" fill-opacity="1"><g transform="translate(38.875764, 25.696955)"><g/></g></g><g fill="#ffffff" fill-opacity="1"><g transform="translate(40.682105, 25.696955)"><g><path d="M 2.609375 -0.546875 L 2.703125 -0.109375 C 2.628906 -0.078125 2.515625 -0.0390625 2.359375 0 C 2.203125 0.0390625 2.019531 0.0625 1.8125 0.0625 C 1.488281 0.0625 1.210938 -0.00390625 0.984375 -0.140625 C 0.753906 -0.273438 0.570312 -0.457031 0.4375 -0.6875 C 0.3125 -0.925781 0.25 -1.207031 0.25 -1.53125 C 0.25 -1.851562 0.316406 -2.140625 0.453125 -2.390625 C 0.585938 -2.640625 0.78125 -2.835938 1.03125 -2.984375 C 1.289062 -3.128906 1.585938 -3.203125 1.921875 -3.203125 C 2.097656 -3.203125 2.253906 -3.179688 2.390625 -3.140625 C 2.523438 -3.109375 2.632812 -3.070312 2.71875 -3.03125 L 2.59375 -2.59375 C 2.519531 -2.632812 2.425781 -2.671875 2.3125 -2.703125 C 2.207031 -2.734375 2.078125 -2.75 1.921875 -2.75 C 1.691406 -2.75 1.492188 -2.691406 1.328125 -2.578125 C 1.160156 -2.472656 1.035156 -2.332031 0.953125 -2.15625 C 0.867188 -1.976562 0.828125 -1.78125 0.828125 -1.5625 C 0.828125 -1.320312 0.875 -1.113281 0.96875 -0.9375 C 1.0625 -0.757812 1.1875 -0.625 1.34375 -0.53125 C 1.507812 -0.4375 1.695312 -0.390625 1.90625 -0.390625 C 2.070312 -0.390625 2.207031 -0.40625 2.3125 -0.4375 C 2.425781 -0.46875 2.523438 -0.503906 2.609375 -0.546875 Z M 2.609375 -0.546875 "/></g></g></g><g fill="#ffffff" fill-opacity="1"><g transform="translate(44.016127, 25.696955)"><g><path d="M 3.09375 -3.125 L 3.09375 -0.859375 C 3.09375 -0.691406 3.09375 -0.535156 3.09375 -0.390625 C 3.101562 -0.253906 3.113281 -0.125 3.125 0 L 2.609375 0 L 2.578125 -0.515625 L 2.5625 -0.515625 C 2.519531 -0.429688 2.453125 -0.34375 2.359375 -0.25 C 2.265625 -0.15625 2.148438 -0.078125 2.015625 -0.015625 C 1.878906 0.046875 1.71875 0.078125 1.53125 0.078125 C 1.414062 0.078125 1.289062 0.0546875 1.15625 0.015625 C 1.03125 -0.0234375 0.910156 -0.0976562 0.796875 -0.203125 C 0.691406 -0.304688 0.609375 -0.445312 0.546875 -0.625 C 0.484375 -0.800781 0.453125 -1.023438 0.453125 -1.296875 L 0.453125 -3.125 L 1.015625 -3.125 L 1.015625 -1.390625 C 1.015625 -1.097656 1.066406 -0.859375 1.171875 -0.671875 C 1.273438 -0.492188 1.457031 -0.40625 1.71875 -0.40625 C 1.90625 -0.40625 2.0625 -0.457031 2.1875 -0.5625 C 2.320312 -0.675781 2.414062 -0.796875 2.46875 -0.921875 C 2.5 -1.003906 2.515625 -1.097656 2.515625 -1.203125 L 2.515625 -3.125 Z M 3.09375 -3.125 "/></g></g></g><g fill="#ffffff" fill-opacity="1"><g transform="translate(48.016892, 25.696955)"><g><path d="M 1.796875 -3.203125 C 2.097656 -3.203125 2.359375 -3.132812 2.578125 -3 C 2.804688 -2.863281 2.984375 -2.671875 3.109375 -2.421875 C 3.242188 -2.179688 3.3125 -1.90625 3.3125 -1.59375 C 3.3125 -1.300781 3.265625 -1.050781 3.171875 -0.84375 C 3.078125 -0.632812 2.953125 -0.460938 2.796875 -0.328125 C 2.648438 -0.191406 2.484375 -0.0859375 2.296875 -0.015625 C 2.117188 0.046875 1.9375 0.078125 1.75 0.078125 C 1.46875 0.078125 1.210938 0.0078125 0.984375 -0.125 C 0.753906 -0.257812 0.570312 -0.445312 0.4375 -0.6875 C 0.3125 -0.925781 0.25 -1.210938 0.25 -1.546875 C 0.25 -1.890625 0.316406 -2.1875 0.453125 -2.4375 C 0.585938 -2.6875 0.769531 -2.875 1 -3 C 1.238281 -3.132812 1.503906 -3.203125 1.796875 -3.203125 Z M 1.78125 -2.78125 C 1.5625 -2.78125 1.378906 -2.71875 1.234375 -2.59375 C 1.085938 -2.46875 0.984375 -2.3125 0.921875 -2.125 C 0.859375 -1.945312 0.828125 -1.757812 0.828125 -1.5625 C 0.828125 -1.332031 0.863281 -1.125 0.9375 -0.9375 C 1.019531 -0.757812 1.132812 -0.617188 1.28125 -0.515625 C 1.425781 -0.410156 1.585938 -0.359375 1.765625 -0.359375 C 1.953125 -0.359375 2.117188 -0.410156 2.265625 -0.515625 C 2.410156 -0.617188 2.519531 -0.757812 2.59375 -0.9375 C 2.675781 -1.125 2.71875 -1.335938 2.71875 -1.578125 C 2.71875 -1.753906 2.6875 -1.929688 2.625 -2.109375 C 2.5625 -2.296875 2.460938 -2.453125 2.328125 -2.578125 C 2.191406 -2.710938 2.007812 -2.78125 1.78125 -2.78125 Z M 1.578125 -4.484375 L 1.96875 -4.484375 L 2.59375 -3.5625 L 2.140625 -3.5625 L 1.765625 -4.171875 L 1.390625 -3.5625 L 0.96875 -3.5625 Z M 1.78125 0.515625 C 1.875 0.515625 1.945312 0.546875 2 0.609375 C 2.0625 0.679688 2.09375 0.757812 2.09375 0.84375 C 2.09375 0.9375 2.0625 1.015625 2 1.078125 C 1.945312 1.148438 1.867188 1.1875 1.765625 1.1875 C 1.671875 1.1875 1.59375 1.148438 1.53125 1.078125 C 1.476562 1.015625 1.453125 0.9375 1.453125 0.84375 C 1.453125 0.757812 1.484375 0.679688 1.546875 0.609375 C 1.609375 0.546875 1.6875 0.515625 1.78125 0.515625 Z M 1.78125 0.515625 "/></g></g></g><g fill="#ffffff" fill-opacity="1"><g transform="translate(52.004703, 25.696955)"><g><path d="M 2.609375 -0.546875 L 2.703125 -0.109375 C 2.628906 -0.078125 2.515625 -0.0390625 2.359375 0 C 2.203125 0.0390625 2.019531 0.0625 1.8125 0.0625 C 1.488281 0.0625 1.210938 -0.00390625 0.984375 -0.140625 C 0.753906 -0.273438 0.570312 -0.457031 0.4375 -0.6875 C 0.3125 -0.925781 0.25 -1.207031 0.25 -1.53125 C 0.25 -1.851562 0.316406 -2.140625 0.453125 -2.390625 C 0.585938 -2.640625 0.78125 -2.835938 1.03125 -2.984375 C 1.289062 -3.128906 1.585938 -3.203125 1.921875 -3.203125 C 2.097656 -3.203125 2.253906 -3.179688 2.390625 -3.140625 C 2.523438 -3.109375 2.632812 -3.070312 2.71875 -3.03125 L 2.59375 -2.59375 C 2.519531 -2.632812 2.425781 -2.671875 2.3125 -2.703125 C 2.207031 -2.734375 2.078125 -2.75 1.921875 -2.75 C 1.691406 -2.75 1.492188 -2.691406 1.328125 -2.578125 C 1.160156 -2.472656 1.035156 -2.332031 0.953125 -2.15625 C 0.867188 -1.976562 0.828125 -1.78125 0.828125 -1.5625 C 0.828125 -1.320312 0.875 -1.113281 0.96875 -0.9375 C 1.0625 -0.757812 1.1875 -0.625 1.34375 -0.53125 C 1.507812 -0.4375 1.695312 -0.390625 1.90625 -0.390625 C 2.070312 -0.390625 2.207031 -0.40625 2.3125 -0.4375 C 2.425781 -0.46875 2.523438 -0.503906 2.609375 -0.546875 Z M 2.609375 -0.546875 "/></g></g></g><g fill="#ffffff" fill-opacity="1"><g transform="translate(55.338725, 25.696955)"><g/></g></g><g fill="#ffffff" fill-opacity="1"><g transform="translate(57.145066, 25.696955)"><g><path d="M 0.25 -0.15625 L 0.390625 -0.578125 C 0.484375 -0.523438 0.597656 -0.472656 0.734375 -0.421875 C 0.867188 -0.378906 1.003906 -0.359375 1.140625 -0.359375 C 1.347656 -0.359375 1.5 -0.398438 1.59375 -0.484375 C 1.695312 -0.578125 1.75 -0.691406 1.75 -0.828125 C 1.75 -0.960938 1.703125 -1.070312 1.609375 -1.15625 C 1.523438 -1.238281 1.378906 -1.316406 1.171875 -1.390625 C 0.890625 -1.492188 0.679688 -1.617188 0.546875 -1.765625 C 0.410156 -1.921875 0.34375 -2.09375 0.34375 -2.28125 C 0.34375 -2.445312 0.382812 -2.597656 0.46875 -2.734375 C 0.5625 -2.878906 0.6875 -2.992188 0.84375 -3.078125 C 1.007812 -3.160156 1.203125 -3.203125 1.421875 -3.203125 C 1.578125 -3.203125 1.722656 -3.179688 1.859375 -3.140625 C 1.992188 -3.097656 2.101562 -3.054688 2.1875 -3.015625 L 2.046875 -2.59375 C 1.984375 -2.632812 1.894531 -2.675781 1.78125 -2.71875 C 1.675781 -2.757812 1.550781 -2.78125 1.40625 -2.78125 C 1.238281 -2.78125 1.109375 -2.734375 1.015625 -2.640625 C 0.929688 -2.554688 0.890625 -2.457031 0.890625 -2.34375 C 0.890625 -2.21875 0.9375 -2.117188 1.03125 -2.046875 C 1.125 -1.972656 1.273438 -1.894531 1.484375 -1.8125 C 1.753906 -1.707031 1.957031 -1.582031 2.09375 -1.4375 C 2.226562 -1.289062 2.296875 -1.101562 2.296875 -0.875 C 2.296875 -0.59375 2.191406 -0.363281 1.984375 -0.1875 C 1.785156 -0.0195312 1.5 0.0625 1.125 0.0625 C 0.957031 0.0625 0.796875 0.0390625 0.640625 0 C 0.492188 -0.03125 0.363281 -0.0820312 0.25 -0.15625 Z M 0.25 -0.15625 "/></g></g></g><g fill="#ffffff" fill-opacity="1"><g transform="translate(60.142479, 25.696955)"><g><path d="M 1.796875 -3.203125 C 2.097656 -3.203125 2.359375 -3.132812 2.578125 -3 C 2.804688 -2.863281 2.984375 -2.671875 3.109375 -2.421875 C 3.242188 -2.179688 3.3125 -1.90625 3.3125 -1.59375 C 3.3125 -1.300781 3.265625 -1.050781 3.171875 -0.84375 C 3.078125 -0.632812 2.953125 -0.460938 2.796875 -0.328125 C 2.648438 -0.191406 2.484375 -0.0859375 2.296875 -0.015625 C 2.117188 0.046875 1.9375 0.078125 1.75 0.078125 C 1.46875 0.078125 1.210938 0.0078125 0.984375 -0.125 C 0.753906 -0.257812 0.570312 -0.445312 0.4375 -0.6875 C 0.3125 -0.925781 0.25 -1.210938 0.25 -1.546875 C 0.25 -1.890625 0.316406 -2.1875 0.453125 -2.4375 C 0.585938 -2.6875 0.769531 -2.875 1 -3 C 1.238281 -3.132812 1.503906 -3.203125 1.796875 -3.203125 Z M 1.78125 -2.78125 C 1.5625 -2.78125 1.378906 -2.71875 1.234375 -2.59375 C 1.085938 -2.46875 0.984375 -2.3125 0.921875 -2.125 C 0.859375 -1.945312 0.828125 -1.757812 0.828125 -1.5625 C 0.828125 -1.332031 0.863281 -1.125 0.9375 -0.9375 C 1.019531 -0.757812 1.132812 -0.617188 1.28125 -0.515625 C 1.425781 -0.410156 1.585938 -0.359375 1.765625 -0.359375 C 1.953125 -0.359375 2.117188 -0.410156 2.265625 -0.515625 C 2.410156 -0.617188 2.519531 -0.757812 2.59375 -0.9375 C 2.675781 -1.125 2.71875 -1.335938 2.71875 -1.578125 C 2.71875 -1.753906 2.6875 -1.929688 2.625 -2.109375 C 2.5625 -2.296875 2.460938 -2.453125 2.328125 -2.578125 C 2.191406 -2.710938 2.007812 -2.78125 1.78125 -2.78125 Z M 1.59375 -4.484375 L 2.015625 -4.484375 L 2.5625 -3.5625 L 2.140625 -3.5625 L 1.8125 -4.171875 L 1.796875 -4.171875 L 1.46875 -3.5625 L 1.046875 -3.5625 Z M 2.828125 -5.015625 L 3.359375 -5.015625 L 2.71875 -4.15625 L 2.390625 -4.15625 Z M 2.828125 -5.015625 "/></g></g></g><g fill="#ffffff" fill-opacity="1"><g transform="translate(64.13029, 25.696955)"><g><path d="M 0.46875 0 L 0.46875 -2.28125 C 0.46875 -2.445312 0.460938 -2.597656 0.453125 -2.734375 C 0.453125 -2.867188 0.453125 -3 0.453125 -3.125 L 0.953125 -3.125 L 0.984375 -2.609375 L 1 -2.609375 C 1.070312 -2.765625 1.195312 -2.898438 1.375 -3.015625 C 1.550781 -3.140625 1.769531 -3.203125 2.03125 -3.203125 C 2.132812 -3.203125 2.25 -3.179688 2.375 -3.140625 C 2.507812 -3.097656 2.632812 -3.03125 2.75 -2.9375 C 2.863281 -2.84375 2.957031 -2.707031 3.03125 -2.53125 C 3.101562 -2.351562 3.140625 -2.132812 3.140625 -1.875 L 3.140625 0 L 2.5625 0 L 2.5625 -1.8125 C 2.5625 -1.976562 2.539062 -2.128906 2.5 -2.265625 C 2.457031 -2.410156 2.378906 -2.523438 2.265625 -2.609375 C 2.160156 -2.691406 2.019531 -2.734375 1.84375 -2.734375 C 1.65625 -2.734375 1.492188 -2.675781 1.359375 -2.5625 C 1.222656 -2.445312 1.128906 -2.304688 1.078125 -2.140625 C 1.054688 -2.078125 1.046875 -1.988281 1.046875 -1.875 L 1.046875 0 Z M 0.46875 0 "/></g></g></g><g clip-path="url(#f44f5b68ab)"><g fill="#ffffff" fill-opacity="1"><g transform="translate(68.156947, 25.696955)"><g><path d="M 2.671875 -3.125 L 3.171875 -3.125 C 3.160156 -3.019531 3.148438 -2.898438 3.140625 -2.765625 C 3.140625 -2.628906 3.140625 -2.460938 3.140625 -2.265625 L 3.140625 -0.453125 C 3.140625 -0.0976562 3.101562 0.191406 3.03125 0.421875 C 2.957031 0.648438 2.847656 0.835938 2.703125 0.984375 C 2.546875 1.117188 2.363281 1.210938 2.15625 1.265625 C 1.957031 1.328125 1.757812 1.359375 1.5625 1.359375 C 1.375 1.359375 1.179688 1.332031 0.984375 1.28125 C 0.796875 1.238281 0.640625 1.175781 0.515625 1.09375 L 0.65625 0.65625 C 0.757812 0.71875 0.890625 0.773438 1.046875 0.828125 C 1.203125 0.878906 1.378906 0.90625 1.578125 0.90625 C 1.867188 0.90625 2.109375 0.820312 2.296875 0.65625 C 2.492188 0.488281 2.59375 0.207031 2.59375 -0.1875 L 2.59375 -0.53125 L 2.578125 -0.53125 C 2.484375 -0.382812 2.351562 -0.257812 2.1875 -0.15625 C 2.019531 -0.0625 1.816406 -0.015625 1.578125 -0.015625 C 1.316406 -0.015625 1.085938 -0.078125 0.890625 -0.203125 C 0.691406 -0.335938 0.535156 -0.519531 0.421875 -0.75 C 0.304688 -0.988281 0.25 -1.253906 0.25 -1.546875 C 0.25 -1.890625 0.316406 -2.1875 0.453125 -2.4375 C 0.585938 -2.6875 0.757812 -2.875 0.96875 -3 C 1.1875 -3.132812 1.414062 -3.203125 1.65625 -3.203125 C 1.925781 -3.203125 2.140625 -3.144531 2.296875 -3.03125 C 2.453125 -2.914062 2.5625 -2.789062 2.625 -2.65625 L 2.640625 -2.65625 Z M 2.578125 -1.328125 L 2.578125 -1.890625 C 2.578125 -1.941406 2.570312 -1.988281 2.5625 -2.03125 C 2.5625 -2.070312 2.554688 -2.113281 2.546875 -2.15625 C 2.492188 -2.320312 2.398438 -2.460938 2.265625 -2.578125 C 2.128906 -2.691406 1.957031 -2.75 1.75 -2.75 C 1.476562 -2.75 1.253906 -2.640625 1.078125 -2.421875 C 0.910156 -2.210938 0.828125 -1.929688 0.828125 -1.578125 C 0.828125 -1.367188 0.859375 -1.175781 0.921875 -1 C 0.992188 -0.832031 1.097656 -0.695312 1.234375 -0.59375 C 1.367188 -0.5 1.539062 -0.453125 1.75 -0.453125 C 1.925781 -0.453125 2.082031 -0.5 2.21875 -0.59375 C 2.363281 -0.695312 2.46875 -0.84375 2.53125 -1.03125 C 2.550781 -1.070312 2.5625 -1.117188 2.5625 -1.171875 C 2.570312 -1.234375 2.578125 -1.285156 2.578125 -1.328125 Z M 2.578125 -1.328125 "/></g></g></g></g></g></g></g></svg>